# xmcd
# 
# Track frame offsets:
#     150
#     23082
#     43462
#     66382
#     97987
# 
# Disc length: 4440
# 
# Revision: 4
# Processed by: cddbd v1.5.2PL0 Copyright (c) Steve Scherf et al.
# Submitted via: BonkEnc v1.0
# 
DISCID=40115605
DTITLE=Heartsdales - CANDY POP feat.SOUL'd OUT
DYEAR=2003
DGENRE=Hip-Hop
TTITLE0=CANDY POP feat.SOUL'd OUT
TTITLE1=Summer Time Blues
TTITLE2=CANDY POP feat. SOUL'd OUT (lnstrumental)
TTITLE3=Summer Time Blues(lnstrumental) 
TTITLE4=データ トラック
EXTD=YEAR: 2003
EXTT0=
EXTT1=
EXTT2=
EXTT3=
EXTT4=
PLAYORDER=
